<svg xmlns="http://www.w3.org/2000/svg" xmlns:xlink="http://www.w3.org/1999/xlink" version="1.1" x="0px" y="0px" viewBox="0 0 100 125" enable-background="new 0 0 100 100" xml:space="preserve"><path d="M32.951,28.716c-0.781-0.781-2.047-0.781-2.828,0l-19.871,19.87C9.877,48.961,9.666,49.47,9.666,50s0.211,1.039,0.586,1.414  l19.871,19.87c0.391,0.391,0.902,0.586,1.414,0.586s1.023-0.195,1.414-0.586c0.781-0.781,0.781-2.047,0-2.828L14.494,50  l18.457-18.456C33.732,30.763,33.732,29.497,32.951,28.716z M89.748,48.586l-19.871-19.87c-0.781-0.781-2.047-0.781-2.828,0  s-0.781,2.047,0,2.828L85.506,50L67.049,68.456c-0.781,0.781-0.781,2.047,0,2.828c0.391,0.391,0.902,0.586,1.414,0.586  s1.023-0.195,1.414-0.586l19.871-19.87c0.375-0.375,0.586-0.884,0.586-1.414S90.123,48.961,89.748,48.586z M63.208,21.182  c-1.002-0.458-2.191-0.021-2.651,0.985l-24.75,54c-0.46,1.004-0.02,2.19,0.985,2.651C37.062,78.941,37.345,79,37.624,79  c0.758,0,1.482-0.433,1.819-1.167l24.75-54C64.653,22.829,64.213,21.643,63.208,21.182z"/><text x="0" y="115" fill="#000000" font-size="5px" font-weight="bold" font-family="'Helvetica Neue', Helvetica, Arial-Unicode, Arial, Sans-serif">Created by amante de icono</text><text x="0" y="120" fill="#000000" font-size="5px" font-weight="bold" font-family="'Helvetica Neue', Helvetica, Arial-Unicode, Arial, Sans-serif">from the Noun Project</text></svg>